<svg xmlns="http://www.w3.org/2000/svg" width="256" height="256" viewBox="0 0 256 256">
<rect width="256" height="256" fill="#11191d"/>
<rect x="10" y="10" width="236" height="236" rx="12" fill="none" stroke="#3b494e" stroke-width="3"/>
<path d="M31 32h46M179 32h46M31 224h46M179 224h46" stroke="#3b494e" stroke-width="2"/>
<g fill="none" stroke="#687477" stroke-width="7" stroke-linecap="round" stroke-linejoin="round"><path d="M105 179c-1 18 8 28 23 28 16 0 25-11 25-27 0-14 8-20 19-31 11-11 17-26 17-42 0-37-25-61-58-61-35 0-60 25-60 59 0 13 4 23 11 31"/><path d="M104 115c-4-20 7-38 26-40 18-2 32 10 32 27 0 14-8 22-19 32-9 8-15 16-15 29"/><path d="M101 144c9 4 18 3 26-4M53 202 203 54"/></g>
<text x="128" y="231" text-anchor="middle" fill="#3b494e" font-family="sans-serif" font-size="11" letter-spacing="2">LOCKED</text>
</svg>
